<?xml version="1.0" encoding="UTF-8" standalone="no"?>
<svg width="256px" height="256px" viewBox="0 0 256 256" version="1.1" xmlns="http://www.w3.org/2000/svg" xmlns:xlink="http://www.w3.org/1999/xlink">
    <!-- Generator: Sketch 42 (36781) - http://www.bohemiancoding.com/sketch -->
    <title>Group</title>
    <desc>Created with Sketch.</desc>
    <defs></defs>
    <g id="Page-1" stroke="none" stroke-width="1" fill="none" fill-rule="evenodd">
        <g id="Group">
            <rect id="Rectangle" fill="#00B900" x="0" y="0" width="256" height="256" rx="47"></rect>
            <path d="M112.009117,191.640198 C67.7991748,185.643678 34.0972516,154.344606 34.0972516,116.634249 C34.0972516,74.6372561 75.8966289,40.5919662 127.458774,40.5919662 C179.020919,40.5919662 220.820296,74.6372561 220.820296,116.634249 C220.820296,137.572174 210.430652,156.533625 193.621384,170.285049 C185.821663,179.500889 167.813012,191.975126 155.151565,200.621032 C137.375365,212.879468 118.954522,223.429517 118.954522,216.2697 C118.954522,212.134696 120.495266,209.615052 120.663878,203.295888 C120.663878,194.909922 119.236781,193.498887 112.00912,191.640198 Z" id="Combined-Shape" fill="#FFFFFF"></path>
            <g id="Line" transform="translate(64.947146, 94.879493)" fill="#00B900">
                <rect id="Rectangle-2" x="0" y="1" width="10" height="45" rx="2"></rect>
                <rect id="Rectangle-2" transform="translate(14.813369, 40.901140) rotate(-90.000000) translate(-14.813369, -40.901140) " x="9.81336867" y="26.1406259" width="10" height="29.5210291" rx="2"></rect>
                <rect id="Rectangle-2" transform="translate(111.813369, 41.120507) rotate(-90.000000) translate(-111.813369, -41.120507) " x="106.813369" y="26.3599929" width="10" height="29.5210291" rx="2"></rect>
                <rect id="Rectangle-2" transform="translate(111.813369, 23.120507) rotate(-90.000000) translate(-111.813369, -23.120507) " x="106.813369" y="8.35999285" width="10" height="29.5210291" rx="2"></rect>
                <rect id="Rectangle-2" transform="translate(111.813369, 6.120507) rotate(-90.000000) translate(-111.813369, -6.120507) " x="106.813369" y="-8.64000715" width="10" height="29.5210291" rx="2"></rect>
                <rect id="Rectangle-2" x="35.0528541" y="1.1205074" width="10" height="45" rx="2"></rect>
                <rect id="Rectangle-2" x="52.0528541" y="1.1205074" width="10" height="45" rx="2"></rect>
                <rect id="Rectangle-2" x="80.0528541" y="1.1205074" width="10" height="45" rx="2"></rect>
                <rect id="Rectangle-2" transform="translate(71.310590, 23.796523) rotate(-36.000000) translate(-71.310590, -23.796523) " x="65.9010944" y="-0.502194626" width="10.8189902" height="48.5974351" rx="2"></rect>
                <rect id="Rectangle-2" x="97.0528541" y="1.1205074" width="10" height="45" rx="2"></rect>
            </g>
        </g>
    </g>
</svg>